<svg width="50" height="50" viewBox="0 0 50 50" fill="none" xmlns="http://www.w3.org/2000/svg">
<path d="M2.92969 0L6.03523 43.7599L25.0195 50L44.0037 43.7599L47.1092 0H2.92969Z" fill="#FF7816"/>
<path d="M47.1093 0L44.0038 43.7599L25.0195 50V0H47.1093Z" fill="#FF4B00"/>
<path d="M38.8184 13.2812H17.1094L17.6366 20.6055H38.2912L37.0312 38.3396L25.0195 42.3534L13.0078 38.3396L12.5977 32.4219H18.4571L18.5742 34.0332L25.0195 36.1717L31.4648 34.0332L31.992 26.4648H12.1583L10.8105 7.42188H39.2285L38.8184 13.2812Z" fill="#ECECF1"/>
<path d="M38.2912 20.6055L37.0312 38.3396L25.0195 42.3534V36.1717L31.4648 34.0332L31.992 26.4648H25.0195V20.6055H38.2912Z" fill="#E2E2E7"/>
<path d="M39.2285 7.42188L38.8184 13.2812H25.0195V7.42188H39.2285Z" fill="#E2E2E7"/>
</svg>
