<svg width="50" height="50" viewBox="0 0 50 50" fill="none" xmlns="http://www.w3.org/2000/svg">
<g clip-path="url(#clip0_122_16)">
<path d="M0 0H50V50H0V0Z" fill="#FFDF00"/>
<path d="M33.5863 39.0626C34.5935 40.707 35.9038 41.9157 38.2213 41.9157C40.1681 41.9157 41.4117 40.9427 41.4117 39.5982C41.4117 37.9871 40.134 37.4165 37.9911 36.4792L36.8165 35.9752C33.426 34.5308 31.1736 32.7212 31.1736 28.8958C31.1736 25.372 33.8586 22.6895 38.0546 22.6895C41.0419 22.6895 43.1896 23.7291 44.7371 26.4514L41.0784 28.8006C40.2729 27.3562 39.4038 26.7871 38.0546 26.7871C36.6784 26.7871 35.8062 27.6602 35.8062 28.8006C35.8062 30.2102 36.6792 30.7808 38.695 31.6538L39.8696 32.1569C43.8617 33.8688 46.1156 35.6141 46.1156 39.5379C46.1156 43.7681 42.7926 46.0855 38.3299 46.0855C33.9664 46.0855 31.1474 44.0062 29.768 41.2808L33.5863 39.0626ZM16.9887 39.4697C17.7268 40.7793 18.3982 41.8864 20.0125 41.8864C21.5562 41.8864 22.53 41.2824 22.53 38.9341V22.9578H27.2284V38.9975C27.2284 43.8625 24.3761 46.0769 20.2125 46.0769C16.4506 46.0769 14.2721 44.13 13.1641 41.7852L16.9887 39.4697Z" fill="black"/>
</g>
<defs>
<clipPath id="clip0_122_16">
<rect width="50" height="50" fill="white"/>
</clipPath>
</defs>
</svg>
