<svg width="32" height="32" viewBox="0 0 32 32" fill="none" xmlns="http://www.w3.org/2000/svg">
<g clip-path="url(#clip0_122_20)">
<path d="M31 32H9C8.73478 32 8.48043 31.8946 8.29289 31.7071C8.10536 31.5196 8 31.2652 8 31V14C8 13.7348 8.10536 13.4804 8.29289 13.2929C8.48043 13.1054 8.73478 13 9 13H31C31.2652 13 31.5196 13.1054 31.7071 13.2929C31.8946 13.4804 32 13.7348 32 14V31C32 31.2652 31.8946 31.5196 31.7071 31.7071C31.5196 31.8946 31.2652 32 31 32ZM10 30H30V15H10V30Z" fill="#38004D"/>
<path d="M9 24H4C2.93913 24 1.92172 23.5786 1.17157 22.8284C0.421427 22.0783 0 21.0609 0 20V4C0 2.93913 0.421427 1.92172 1.17157 1.17157C1.92172 0.421427 2.93913 0 4 0L14 0C15.0609 0 16.0783 0.421427 16.8284 1.17157C17.5786 1.92172 18 2.93913 18 4V10C18 10.2652 17.8946 10.5196 17.7071 10.7071C17.5196 10.8946 17.2652 11 17 11C16.7348 11 16.4804 10.8946 16.2929 10.7071C16.1054 10.5196 16 10.2652 16 10V4C16 3.46957 15.7893 2.96086 15.4142 2.58579C15.0391 2.21071 14.5304 2 14 2H4C3.46957 2 2.96086 2.21071 2.58579 2.58579C2.21071 2.96086 2 3.46957 2 4V20C2 20.5304 2.21071 21.0391 2.58579 21.4142C2.96086 21.7893 3.46957 22 4 22H9C9.26522 22 9.51957 22.1054 9.70711 22.2929C9.89464 22.4804 10 22.7348 10 23C10 23.2652 9.89464 23.5196 9.70711 23.7071C9.51957 23.8946 9.26522 24 9 24Z" fill="#38004D"/>
<path d="M7 11C6.20435 11 5.44129 10.6839 4.87868 10.1213C4.31607 9.55871 4 8.79565 4 8V5C4 4.73478 4.10536 4.48043 4.29289 4.29289C4.48043 4.10536 4.73478 4 5 4C5.26522 4 5.51957 4.10536 5.70711 4.29289C5.89464 4.48043 6 4.73478 6 5V8C6 8.26522 6.10536 8.51957 6.29289 8.70711C6.48043 8.89464 6.73478 9 7 9C7.26522 9 7.51957 8.89464 7.70711 8.70711C7.89464 8.51957 8 8.26522 8 8V5C8 4.73478 8.10536 4.48043 8.29289 4.29289C8.48043 4.10536 8.73478 4 9 4C9.26522 4 9.51957 4.10536 9.70711 4.29289C9.89464 4.48043 10 4.73478 10 5V8C10 8.79565 9.68393 9.55871 9.12132 10.1213C8.55871 10.6839 7.79565 11 7 11Z" fill="#38004D"/>
<path d="M15 24C14.2044 24 13.4413 23.6839 12.8787 23.1213C12.3161 22.5587 12 21.7956 12 21V18C12 17.7348 12.1054 17.4804 12.2929 17.2929C12.4804 17.1054 12.7348 17 13 17C13.2652 17 13.5196 17.1054 13.7071 17.2929C13.8946 17.4804 14 17.7348 14 18V21C14 21.2652 14.1054 21.5196 14.2929 21.7071C14.4804 21.8946 14.7348 22 15 22C15.2652 22 15.5196 21.8946 15.7071 21.7071C15.8946 21.5196 16 21.2652 16 21V18C16 17.7348 16.1054 17.4804 16.2929 17.2929C16.4804 17.1054 16.7348 17 17 17C17.2652 17 17.5196 17.1054 17.7071 17.2929C17.8946 17.4804 18 17.7348 18 18V21C18 21.7956 17.6839 22.5587 17.1213 23.1213C16.5587 23.6839 15.7956 24 15 24Z" fill="#9F85EC"/>
<path d="M13 11C12.7348 11 12.4804 10.8946 12.2929 10.7071C12.1054 10.5196 12 10.2652 12 10V5C12 4.73478 12.1054 4.48043 12.2929 4.29289C12.4804 4.10536 12.7348 4 13 4C13.2652 4 13.5196 4.10536 13.7071 4.29289C13.8946 4.48043 14 4.73478 14 5V10C14 10.2652 13.8946 10.5196 13.7071 10.7071C13.5196 10.8946 13.2652 11 13 11Z" fill="#38004D"/>
<path d="M23.9999 24C23.8497 23.9993 23.7016 23.9648 23.5666 23.899C23.4315 23.8332 23.3131 23.7378 23.2199 23.62L19.2199 18.62C19.0813 18.4113 19.0259 18.1582 19.0649 17.9108C19.1039 17.6633 19.2344 17.4395 19.4305 17.2836C19.6266 17.1277 19.8741 17.0511 20.124 17.0689C20.3739 17.0868 20.608 17.1978 20.7799 17.38L24.7799 22.38C24.8962 22.5271 24.9687 22.7039 24.9893 22.8902C25.0099 23.0765 24.9777 23.2649 24.8963 23.4338C24.815 23.6027 24.6879 23.7454 24.5294 23.8455C24.3709 23.9456 24.1874 23.9991 23.9999 24Z" fill="#9F85EC"/>
<path d="M19.9993 24C19.8118 23.9992 19.6284 23.9456 19.4699 23.8455C19.3114 23.7454 19.1842 23.6028 19.1029 23.4338C19.0216 23.2649 18.9894 23.0766 19.01 22.8902C19.0305 22.7039 19.1031 22.5271 19.2193 22.38L23.2193 17.38C23.296 17.2647 23.3957 17.1666 23.5123 17.0918C23.6289 17.0171 23.7597 16.9673 23.8965 16.9458C24.0333 16.9242 24.173 16.9313 24.3069 16.9666C24.4408 17.0019 24.566 17.0646 24.6744 17.1508C24.7828 17.2369 24.8721 17.3447 24.9367 17.4672C25.0013 17.5897 25.0397 17.7242 25.0496 17.8623C25.0594 18.0005 25.0405 18.1391 24.994 18.2696C24.9475 18.4 24.8744 18.5193 24.7793 18.62L20.7793 23.62C20.6862 23.7379 20.5677 23.8332 20.4327 23.899C20.2976 23.9648 20.1495 23.9993 19.9993 24Z" fill="#9F85EC"/>
<path d="M15 28H13C12.7348 28 12.4804 27.8946 12.2929 27.7071C12.1054 27.5196 12 27.2652 12 27C12 26.7348 12.1054 26.4804 12.2929 26.2929C12.4804 26.1054 12.7348 26 13 26H15C15.2652 26 15.5196 26.1054 15.7071 26.2929C15.8946 26.4804 16 26.7348 16 27C16 27.2652 15.8946 27.5196 15.7071 27.7071C15.5196 27.8946 15.2652 28 15 28Z" fill="#38004D"/>
<path d="M27 28H19C18.7348 28 18.4804 27.8946 18.2929 27.7071C18.1054 27.5196 18 27.2652 18 27C18 26.7348 18.1054 26.4804 18.2929 26.2929C18.4804 26.1054 18.7348 26 19 26H27C27.2652 26 27.5196 26.1054 27.7071 26.2929C27.8946 26.4804 28 26.7348 28 27C28 27.2652 27.8946 27.5196 27.7071 27.7071C27.5196 27.8946 27.2652 28 27 28Z" fill="#38004D"/>
</g>
<defs>
<clipPath id="clip0_122_20">
<rect width="32" height="32" fill="white"/>
</clipPath>
</defs>
</svg>
