<svg width="250" height="56" viewBox="0 0 250 56" fill="none" xmlns="http://www.w3.org/2000/svg">
<path d="M5.08 44.42C4.24 44.34 3.44 44.22 2.68 44.06C1.92 43.9 1.38 43.44 1.06 42.68C0.7 41.84 0.7 40.92 1.06 39.92C1.42 38.92 1.8 38.22 2.2 37.82C2.88 37.1 3.6 36.32 4.36 35.48C5.12 34.64 6.02 33.7 7.06 32.66C8.14 31.58 9.46 30.3 11.02 28.82C12.58 27.3 14.52 25.52 16.84 23.48C18.44 22.12 19.72 21 20.68 20.12C21.64 19.2 22.5 18.36 23.26 17.6C24.02 16.84 24.86 15.98 25.78 15.02C27.18 13.58 28.36 12.34 29.32 11.3C30.28 10.22 30.86 9.28 31.06 8.48C31.3 7.68 31.36 7.12 31.24 6.8C31.16 6.44 30.8 6.2 30.16 6.08C29.52 5.92 28.5 5.8 27.1 5.72C24.62 5.52 22.34 5.54 20.26 5.78C18.22 5.98 16.32 6.24 14.56 6.56C14.28 6.64 13.94 6.5 13.54 6.14C13.18 5.78 13 5.52 13 5.36C13.16 5.16 13.24 4.88 13.24 4.52C13.24 4.16 13.08 3.86 12.76 3.62C12.6 3.22 12.6 2.84 12.76 2.48C12.92 2.08 13.08 1.8 13.24 1.64C13.56 1.48 14.16 1.34 15.04 1.22C15.92 1.1 16.82 0.959999 17.74 0.799999C18.34 0.679998 19.22 0.599998 20.38 0.559999C21.58 0.519999 22.78 0.499999 23.98 0.499999C25.22 0.499999 26.2 0.539999 26.92 0.619998C28.36 0.739999 29.84 0.919999 31.36 1.16C32.92 1.36 34.28 1.7 35.44 2.18C36.64 2.62 37.42 3.28 37.78 4.16C38.22 5.08 38.3 5.9 38.02 6.62C37.78 7.34 37.44 8.3 37 9.5C36.52 10.38 35.7 11.56 34.54 13.04C33.42 14.48 32.12 16 30.64 17.6C29.2 19.16 27.72 20.64 26.2 22.04C23.96 24.12 21.94 25.98 20.14 27.62C18.38 29.22 16.62 30.78 14.86 32.3C13.74 33.26 12.7 34.18 11.74 35.06C10.78 35.9 9.74 36.84 8.62 37.88C8.22 38.4 8.14 38.82 8.38 39.14C8.66 39.46 9.62 39.58 11.26 39.5C12.18 39.46 12.9 39.38 13.42 39.26C13.94 39.14 14.5 39.02 15.1 38.9C15.7 38.78 16.54 38.7 17.62 38.66C19.7 38.54 21.42 38.44 22.78 38.36C24.18 38.28 25.44 38.24 26.56 38.24C26.88 38.24 27.14 38.28 27.34 38.36C27.58 38.44 27.9 38.76 28.3 39.32C28.66 39.44 28.86 39.74 28.9 40.22C28.94 40.66 28.86 41.12 28.66 41.6C28.46 42.12 28.18 42.52 27.82 42.8C27.54 42.8 27.04 42.86 26.32 42.98C25.64 43.14 24.88 43.26 24.04 43.34C23.24 43.46 22.52 43.5 21.88 43.46C21.36 43.42 20.36 43.44 18.88 43.52C17.44 43.64 15.88 43.8 14.2 44C12.72 44.24 11.1 44.38 9.34 44.42C7.58 44.46 6.16 44.46 5.08 44.42ZM35.6158 39.74C35.4558 39.42 35.0958 39.1 34.5358 38.78C34.0158 38.46 33.7558 38.22 33.7558 38.06C33.7558 37.9 33.6558 37.66 33.4558 37.34C33.2958 36.98 33.1358 36.72 32.9758 36.56C32.7758 36.32 32.8358 35.74 33.1558 34.82C33.4758 33.86 33.9558 32.7 34.5958 31.34C35.2358 29.98 35.9358 28.6 36.6958 27.2C37.0158 26.88 37.3358 26.46 37.6558 25.94C37.9758 25.42 38.2158 25.08 38.3758 24.92C38.3758 24.76 38.4358 24.62 38.5558 24.5C38.6758 24.34 38.8158 24.26 38.9758 24.26L39.4558 23.3C39.5358 23.14 39.7758 22.82 40.1758 22.34C40.6158 21.86 41.1358 21.34 41.7358 20.78C42.3358 20.18 42.9358 19.62 43.5358 19.1C44.1758 18.58 44.6958 18.2 45.0958 17.96C45.9358 17.4 46.7958 17.14 47.6758 17.18C48.5958 17.22 49.3758 17.5 50.0158 18.02C50.1358 18.14 50.3958 18.38 50.7958 18.74C51.2358 19.1 51.7158 19.5 52.2358 19.94C52.7958 20.38 53.2758 20.78 53.6758 21.14L55.8958 23.12L54.8758 26.12C54.3558 27.72 54.2158 29.12 54.4558 30.32C54.6958 31.52 55.0758 32.56 55.5958 33.44C55.7958 33.88 56.0558 34.22 56.3758 34.46C56.7358 34.7 57.1958 34.86 57.7558 34.94C58.0758 34.98 58.3758 35.1 58.6558 35.3C58.9358 35.5 59.0758 35.82 59.0758 36.26C59.0758 37.22 58.8958 37.92 58.5358 38.36C58.2158 38.76 57.8558 39 57.4558 39.08C56.1358 39.24 54.8758 39.1 53.6758 38.66C52.4758 38.22 51.3958 37.08 50.4358 35.24C50.2758 35 50.0558 34.56 49.7758 33.92C49.5358 33.24 49.3958 32.8 49.3558 32.6C49.1958 32.8 48.9758 33.06 48.6958 33.38C48.4558 33.66 48.2158 33.92 47.9758 34.16C45.1358 37.04 42.6958 38.92 40.6558 39.8C38.6558 40.64 36.9758 40.62 35.6158 39.74ZM38.9158 34.76C39.1958 34.8 39.6358 34.66 40.2358 34.34C40.8358 33.98 41.6358 33.4 42.6358 32.6C43.9958 31.44 45.1158 30.48 45.9958 29.72C46.8758 28.96 47.7358 27.98 48.5758 26.78L49.8958 24.62C49.4958 23.7 49.1358 23.1 48.8158 22.82C48.4958 22.54 48.1758 22.4 47.8558 22.4C47.3358 22.4 46.7158 22.74 45.9958 23.42C45.2758 24.06 44.4558 25.02 43.5358 26.3C42.6558 27.54 41.6558 29.1 40.5358 30.98C40.0158 31.86 39.6158 32.72 39.3358 33.56C39.0558 34.36 38.9158 34.76 38.9158 34.76ZM65.2131 40.94C64.2531 40.94 63.4131 40.44 62.6931 39.44C62.0131 38.4 61.5931 37.16 61.4331 35.72C61.4731 35.4 61.5131 34.94 61.5531 34.34C61.6331 33.74 61.7131 33.12 61.7931 32.48C61.9531 31.72 62.1731 30.74 62.4531 29.54C62.7331 28.34 63.0331 27.14 63.3531 25.94C63.6731 24.7 63.9531 23.64 64.1931 22.76C64.4331 21.84 64.5731 21.3 64.6131 21.14C64.8531 20.58 65.3931 20.44 66.2331 20.72C67.0731 21 67.7931 21.6 68.3931 22.52C68.6331 22.84 68.7731 23.22 68.8131 23.66C68.8931 24.1 68.8331 24.74 68.6331 25.58C68.4731 26.42 68.1531 27.66 67.6731 29.3C67.2331 30.9 66.8931 32.2 66.6531 33.2C66.4531 34.16 66.3731 35.18 66.4131 36.26C66.2531 38.1 66.0931 39.36 65.9331 40.04C65.7731 40.68 65.5331 40.98 65.2131 40.94ZM70.7331 16.04C70.5731 16.16 70.4131 16.22 70.2531 16.22C70.1331 16.18 69.9131 16.06 69.5931 15.86C69.3131 15.82 68.9531 15.64 68.5131 15.32C68.1131 14.96 67.7531 14.6 67.4331 14.24C67.1531 13.88 67.0131 13.66 67.0131 13.58C66.9731 13.18 66.9931 12.54 67.0731 11.66C67.1931 10.78 67.4131 9.96 67.7331 9.2C68.0931 8.4 68.5731 7.98 69.1731 7.94C69.3331 7.94 69.6731 8.02 70.1931 8.18C70.7531 8.34 71.3331 8.54 71.9331 8.78C72.2531 9.38 72.5531 10.16 72.8331 11.12C73.1131 12.08 73.1331 13.02 72.8931 13.94C72.6931 14.82 71.9731 15.52 70.7331 16.04ZM89.1705 42.14C88.6505 42.26 88.1305 42.12 87.6105 41.72C87.1305 41.36 86.7905 40.96 86.5905 40.52C86.3505 39.88 86.1905 39.28 86.1105 38.72C86.0705 38.12 86.0305 37.44 85.9905 36.68L85.9305 34.64L83.4705 36.86C82.1105 38.14 80.8305 39.06 79.6305 39.62C78.4705 40.14 77.4105 40.4 76.4505 40.4C76.0105 40.32 75.4705 40.04 74.8305 39.56C74.2305 39.04 73.6705 38.48 73.1505 37.88C72.6705 37.24 72.3305 36.72 72.1305 36.32C71.8905 35.76 71.8105 34.98 71.8905 33.98C72.0105 32.98 72.2505 31.88 72.6105 30.68C73.0105 29.48 73.4905 28.3 74.0505 27.14C74.6505 25.98 75.3305 24.98 76.0905 24.14C77.4105 22.14 79.0505 20.9 81.0105 20.42C82.9705 19.9 84.7105 20.06 86.2305 20.9C86.9505 21.26 87.4705 21.4 87.7905 21.32C88.1105 21.24 88.3105 20.98 88.3905 20.54C88.5505 19.9 88.7305 19.3 88.9305 18.74C89.1305 18.18 89.4105 17.34 89.7705 16.22C90.7705 13.18 91.6305 10.8 92.3505 9.08C93.1105 7.36 93.7905 5.86 94.3905 4.58C94.8305 3.66 95.2705 3.02 95.7105 2.66C96.1505 2.3 96.5305 2.14 96.8505 2.18C97.2905 2.18 97.8305 2.34 98.4705 2.66C99.1505 2.98 99.5905 3.42 99.7905 3.98C99.9505 4.34 100.01 4.72 99.9705 5.12C99.9705 5.52 99.8505 5.94 99.6105 6.38C99.0905 7.34 98.4705 8.62 97.7505 10.22C97.0705 11.78 96.3705 13.5 95.6505 15.38C94.9705 17.26 94.3305 19.12 93.7305 20.96C93.1305 22.8 92.6305 24.42 92.2305 25.82C91.9905 26.7 91.7905 27.82 91.6305 29.18C91.5105 30.54 91.4105 31.94 91.3305 33.38C91.2905 34.78 91.2905 36.04 91.3305 37.16C91.3705 38.24 91.4305 38.94 91.5105 39.26C91.7505 40.06 91.7505 40.66 91.5105 41.06C91.2705 41.46 90.9305 41.72 90.4905 41.84C90.0505 42 89.6105 42.1 89.1705 42.14ZM79.2705 34.88C79.8305 34.68 80.3305 34.44 80.7705 34.16C81.2105 33.88 81.7305 33.52 82.3305 33.08C83.5305 32.16 84.3905 31.36 84.9105 30.68C85.4705 30 85.9105 29.16 86.2305 28.16C86.4305 27.56 86.4305 27.04 86.2305 26.6C86.0705 26.16 85.7705 25.74 85.3305 25.34C84.8905 24.98 84.3305 24.84 83.6505 24.92C82.9705 24.96 82.1905 25.38 81.3105 26.18C80.3505 27.06 79.5305 28.08 78.8505 29.24C78.1705 30.4 77.6105 32.06 77.1705 34.22C77.0905 34.62 77.2305 34.9 77.5905 35.06C77.9505 35.22 78.5105 35.16 79.2705 34.88ZM119.742 43.34C118.502 43.26 117.262 42.8 116.022 41.96C114.782 41.16 113.642 40.4 112.602 39.68C111.922 39 111.402 38.28 111.042 37.52C110.682 36.72 110.382 35.68 110.142 34.4C109.982 33.64 109.982 32.64 110.142 31.4C110.302 30.16 110.562 28.92 110.922 27.68C111.282 26.4 111.622 25.4 111.942 24.68C112.422 23.56 113.022 22.36 113.742 21.08C114.502 19.76 115.242 18.52 115.962 17.36C116.722 16.16 117.322 15.2 117.762 14.48C118.042 14.2 118.162 14.06 118.122 14.06C118.122 14.02 118.122 14 118.122 14C118.122 13.8 118.322 13.3 118.722 12.5C119.162 11.66 119.542 10.92 119.862 10.28C120.462 9.64 120.802 9.12 120.882 8.72C120.962 8.32 120.902 8 120.702 7.76C120.622 7.6 120.782 7.26 121.182 6.74C121.622 6.22 122.222 5.64 122.982 5C123.742 4.32 124.582 3.72 125.502 3.2C126.462 2.44 127.382 2.04 128.262 2C129.182 1.92 129.722 2.1 129.882 2.54C129.882 2.66 130.102 2.7 130.542 2.66C131.022 2.58 131.562 2.48 132.162 2.36C132.802 2.2 133.362 2.08 133.842 2C134.042 1.76 134.502 1.58 135.222 1.46C135.982 1.3 136.862 1.16 137.862 1.04C138.382 1.08 138.962 1.1 139.602 1.1C140.242 1.06 140.802 1.02 141.282 0.979997C141.802 0.939997 142.062 0.919997 142.062 0.919997C142.342 0.839998 142.742 1.02 143.262 1.46C143.822 1.86 144.262 2.42 144.582 3.14C144.862 3.86 144.622 4.48 143.862 5C143.102 5.52 141.902 5.88 140.262 6.08C139.062 6.24 138.122 6.38 137.442 6.5C136.802 6.58 136.102 6.7 135.342 6.86C134.622 6.98 133.562 7.2 132.162 7.52C131.162 7.72 130.322 7.88 129.642 8C128.962 8.12 128.362 8.36 127.842 8.72C127.362 9.08 126.822 9.72 126.222 10.64C125.942 10.84 125.582 11.36 125.142 12.2C124.702 13.04 124.262 13.88 123.822 14.72C122.702 16.28 121.862 17.44 121.302 18.2C120.782 18.92 120.602 19.38 120.762 19.58C120.762 19.58 121.042 19.64 121.602 19.76C122.162 19.88 122.522 19.94 122.682 19.94C123.082 19.74 123.562 19.6 124.122 19.52C124.722 19.44 125.202 19.36 125.562 19.28C128.042 18.64 129.862 18.18 131.022 17.9C132.222 17.58 133.062 17.36 133.542 17.24C134.062 17.12 134.522 17.04 134.922 17C135.482 16.56 136.042 16.6 136.602 17.12C137.202 17.6 137.622 18.18 137.862 18.86C138.142 19.66 138.142 20.28 137.862 20.72C137.582 21.16 136.962 21.52 136.002 21.8C135.082 22.08 133.762 22.42 132.042 22.82C130.322 23.18 128.162 23.72 125.562 24.44C123.362 25.08 121.582 25.46 120.222 25.58C118.862 25.7 118.222 25.36 118.302 24.56C118.022 24.4 117.702 24.56 117.342 25.04C117.022 25.48 116.722 26.1 116.442 26.9C116.162 27.7 115.902 28.56 115.662 29.48C115.462 30.4 115.342 31.26 115.302 32.06C115.262 32.86 115.322 33.48 115.482 33.92C115.802 34.84 116.302 35.64 116.982 36.32C117.702 36.96 118.742 37.48 120.102 37.88C120.902 37.92 121.682 37.98 122.442 38.06C123.202 38.14 124.062 37.98 125.022 37.58C127.382 37.18 129.022 36.76 129.942 36.32C130.862 35.88 131.422 35.58 131.622 35.42C131.942 35.26 132.142 35.1 132.222 34.94C132.342 34.78 132.502 34.7 132.702 34.7C132.582 34.9 132.622 34.9 132.822 34.7C133.022 34.5 133.342 34.22 133.782 33.86C134.622 33.14 135.462 32.7 136.302 32.54C137.142 32.38 137.842 32.38 138.402 32.54C138.962 32.66 139.262 32.82 139.302 33.02C139.542 33.42 139.422 34.06 138.942 34.94C138.462 35.78 137.722 36.68 136.722 37.64C135.762 38.6 134.622 39.46 133.302 40.22C131.182 41.34 128.882 42.12 126.402 42.56C123.922 43.04 121.702 43.3 119.742 43.34ZM145.013 39.56C144.613 39.32 144.173 38.98 143.693 38.54C143.213 38.06 142.973 37.6 142.973 37.16C142.973 36.56 143.053 35.82 143.213 34.94C143.373 34.02 143.533 33.24 143.693 32.6C143.773 31.88 143.873 31.16 143.993 30.44C144.153 29.68 144.433 28.98 144.833 28.34C145.273 26.82 145.733 25.32 146.213 23.84C146.693 22.32 147.113 20.76 147.473 19.16C147.993 17.68 148.453 16.38 148.853 15.26C149.293 14.1 149.833 12.64 150.473 10.88C150.833 9.88 151.133 8.82 151.373 7.7C151.653 6.54 152.073 5.5 152.633 4.58C152.873 4.22 153.053 3.92 153.173 3.68C153.333 3.4 153.493 3.14 153.653 2.9C153.693 2.74 153.893 2.6 154.253 2.48C154.653 2.36 155.053 2.3 155.453 2.3C155.893 2.26 156.193 2.34 156.353 2.54C156.473 2.5 156.673 2.66 156.953 3.02C157.233 3.34 157.493 3.72 157.733 4.16C158.013 4.56 158.133 4.88 158.093 5.12C158.093 5.28 158.053 5.5 157.973 5.78C157.933 6.06 157.833 6.32 157.673 6.56C157.513 6.72 157.353 6.96 157.193 7.28C157.073 7.56 156.873 7.96 156.593 8.48C156.433 9 156.293 9.54 156.173 10.1C156.053 10.62 155.893 11.1 155.693 11.54C155.533 12.02 155.333 12.48 155.093 12.92C154.893 13.36 154.753 13.72 154.673 14C154.393 14.92 154.053 15.82 153.653 16.7C153.293 17.58 152.973 18.52 152.693 19.52C152.413 20.48 152.133 21.48 151.853 22.52C151.573 23.52 151.173 24.48 150.653 25.4C150.373 25.84 150.173 26.4 150.053 27.08C149.933 27.76 149.813 28.44 149.693 29.12C149.453 29.84 149.233 30.52 149.033 31.16C148.873 31.76 148.793 32.14 148.793 32.3C148.553 33.18 148.373 34.06 148.253 34.94C148.173 35.78 147.973 36.52 147.653 37.16C147.613 37.56 147.473 38 147.233 38.48C146.993 38.96 146.673 39.32 146.273 39.56C145.913 39.8 145.493 39.8 145.013 39.56ZM157.657 39.92C157.177 40.04 156.637 39.9 156.037 39.5C155.437 39.1 154.897 38.6 154.417 38C153.937 37.4 153.637 36.86 153.517 36.38C153.357 35.54 153.397 34.52 153.637 33.32C153.917 32.08 154.377 30.78 155.017 29.42C155.657 28.02 156.457 26.66 157.417 25.34C158.377 23.98 159.457 22.76 160.657 21.68C161.857 20.6 163.157 19.76 164.557 19.16C165.157 18.84 165.577 18.64 165.817 18.56C166.057 18.44 166.297 18.44 166.537 18.56C166.777 18.64 167.197 18.84 167.797 19.16C168.357 19.32 168.917 19.52 169.477 19.76C170.077 19.96 170.597 20.36 171.037 20.96C171.357 21.56 171.597 22.16 171.757 22.76C171.917 23.36 172.057 24.04 172.177 24.8C172.497 25.8 172.617 26.46 172.537 26.78C172.457 27.06 172.337 27.28 172.177 27.44C171.857 27.84 171.777 28.04 171.937 28.04C171.937 28.04 171.917 28.12 171.877 28.28C171.877 28.4 171.797 28.6 171.637 28.88C171.357 29.76 171.137 30.6 170.977 31.4C170.857 32.16 170.877 32.84 171.037 33.44C171.357 34.32 171.777 34.84 172.297 35C172.857 35.16 173.577 34.8 174.457 33.92C174.897 33.6 175.397 33.4 175.957 33.32C176.517 33.2 176.797 33.3 176.797 33.62C176.797 33.62 176.857 33.68 176.977 33.8C177.097 33.88 177.237 33.92 177.397 33.92C177.597 33.92 177.677 34.12 177.637 34.52C177.597 34.88 177.517 35.3 177.397 35.78C177.277 36.26 177.117 36.66 176.917 36.98C176.317 37.58 176.017 37.98 176.017 38.18C176.017 38.18 175.937 38.26 175.777 38.42C175.657 38.54 175.437 38.74 175.117 39.02C174.397 39.46 173.477 39.68 172.357 39.68C171.277 39.68 170.437 39.46 169.837 39.02C169.237 38.58 168.637 38.04 168.037 37.4C167.477 36.76 167.117 36.16 166.957 35.6L166.657 35L164.917 36.14C164.477 36.58 164.157 36.92 163.957 37.16C163.757 37.36 163.577 37.54 163.417 37.7C163.297 37.86 163.157 38 162.997 38.12C162.877 38.24 162.737 38.3 162.577 38.3C162.417 38.3 162.277 38.3 162.157 38.3C162.037 38.3 161.977 38.3 161.977 38.3C161.977 38.46 161.697 38.68 161.137 38.96C160.577 39.2 159.957 39.42 159.277 39.62C158.597 39.82 158.057 39.92 157.657 39.92ZM158.917 34.88C159.157 34.88 159.517 34.74 159.997 34.46C160.517 34.14 161.077 33.76 161.677 33.32C162.277 32.88 162.817 32.44 163.297 32C163.817 31.56 164.197 31.2 164.437 30.92C164.597 30.76 164.777 30.5 164.977 30.14C165.217 29.78 165.477 29.46 165.757 29.18C166.677 28.14 167.257 27.32 167.497 26.72C167.737 26.08 167.637 25.4 167.197 24.68C167.037 24.24 166.837 24 166.597 23.96C166.357 23.92 165.857 24.06 165.097 24.38C164.617 24.66 164.097 25.12 163.537 25.76C162.977 26.4 162.397 27.12 161.797 27.92C161.237 28.72 160.717 29.54 160.237 30.38C159.757 31.22 159.357 31.98 159.037 32.66C158.757 33.34 158.617 33.88 158.617 34.28C158.617 34.44 158.657 34.58 158.737 34.7C158.857 34.82 158.917 34.88 158.917 34.88ZM182.614 55.28C182.454 55.32 182.214 55.26 181.894 55.1C181.614 54.94 181.374 54.66 181.174 54.26C180.974 53.86 180.914 53.34 180.994 52.7C180.834 52.14 180.854 51.44 181.054 50.6C181.294 49.8 181.794 48.6 182.554 47C182.954 46.36 183.314 45.6 183.634 44.72C183.994 43.84 184.394 42.96 184.834 42.08C185.034 41.72 185.374 41.1 185.854 40.22C186.374 39.34 186.934 38.3 187.534 37.1C188.174 35.86 188.754 34.58 189.274 33.26C188.234 34.34 187.334 35.36 186.574 36.32C185.854 37.24 185.194 37.98 184.594 38.54C184.034 39.06 183.434 39.3 182.794 39.26C182.274 39.14 181.654 38.8 180.934 38.24C180.214 37.68 179.754 37.06 179.554 36.38C179.394 35.5 179.334 34.38 179.374 33.02C179.454 31.66 179.714 29.6 180.154 26.84C180.474 25.48 180.614 24.44 180.574 23.72C180.574 22.96 180.474 22.4 180.274 22.04C180.074 21.68 179.814 21.36 179.494 21.08C178.974 20.6 178.934 20.08 179.374 19.52C179.814 18.96 180.314 18.54 180.874 18.26C181.714 18.06 182.374 18.02 182.854 18.14C183.374 18.22 183.894 18.56 184.414 19.16C184.734 19.68 185.054 20.24 185.374 20.84C185.694 21.44 185.854 22.3 185.854 23.42C185.854 23.9 185.834 24.44 185.794 25.04C185.754 25.6 185.714 26.12 185.674 26.6C185.634 27.08 185.594 27.46 185.554 27.74C185.154 29.22 184.794 30.5 184.474 31.58C184.154 32.66 184.094 33.2 184.294 33.2C185.094 32.56 185.774 31.94 186.334 31.34C186.934 30.74 187.574 30.02 188.254 29.18C188.934 28.34 189.774 27.24 190.774 25.88C191.134 25.2 191.494 24.54 191.854 23.9C192.214 23.26 192.514 22.6 192.754 21.92C192.994 21.4 193.314 20.86 193.714 20.3C194.114 19.7 194.394 19.38 194.554 19.34C194.754 19.26 195.034 19.28 195.394 19.4C195.754 19.52 196.094 19.66 196.414 19.82C196.774 19.94 196.954 20.04 196.954 20.12C196.994 20.16 197.194 20.2 197.554 20.24C197.914 20.28 198.274 20.32 198.634 20.36C198.994 20.36 199.174 20.42 199.174 20.54C199.174 20.62 199.054 20.92 198.814 21.44C198.614 21.96 198.374 22.54 198.094 23.18C197.814 23.82 197.554 24.4 197.314 24.92C197.114 25.4 197.034 25.68 197.074 25.76C197.154 25.84 197.094 26.14 196.894 26.66C196.694 27.14 196.454 27.68 196.174 28.28C195.934 28.88 195.714 29.42 195.514 29.9C195.114 31.22 194.654 32.54 194.134 33.86C193.614 35.14 192.994 36.42 192.274 37.7C192.034 38.18 191.674 38.92 191.194 39.92C190.754 40.92 190.314 41.9 189.874 42.86C189.474 43.86 189.154 44.62 188.914 45.14C188.754 45.46 188.514 45.96 188.194 46.64C187.914 47.36 187.594 48.14 187.234 48.98C186.914 49.82 186.594 50.6 186.274 51.32C185.954 52.08 185.714 52.66 185.554 53.06C185.474 53.82 185.294 54.38 185.014 54.74C184.654 55.1 184.154 55.28 183.514 55.28C182.914 55.28 182.614 55.28 182.614 55.28ZM201.143 39.74C200.983 39.42 200.623 39.1 200.063 38.78C199.543 38.46 199.283 38.22 199.283 38.06C199.283 37.9 199.183 37.66 198.983 37.34C198.823 36.98 198.663 36.72 198.503 36.56C198.303 36.32 198.363 35.74 198.683 34.82C199.003 33.86 199.483 32.7 200.123 31.34C200.763 29.98 201.463 28.6 202.223 27.2C202.543 26.88 202.863 26.46 203.183 25.94C203.503 25.42 203.743 25.08 203.903 24.92C203.903 24.76 203.963 24.62 204.083 24.5C204.203 24.34 204.343 24.26 204.503 24.26L204.983 23.3C205.063 23.14 205.303 22.82 205.703 22.34C206.143 21.86 206.663 21.34 207.263 20.78C207.863 20.18 208.463 19.62 209.063 19.1C209.703 18.58 210.223 18.2 210.623 17.96C211.463 17.4 212.323 17.14 213.203 17.18C214.123 17.22 214.903 17.5 215.543 18.02C215.663 18.14 215.923 18.38 216.323 18.74C216.763 19.1 217.243 19.5 217.763 19.94C218.323 20.38 218.803 20.78 219.203 21.14L221.423 23.12L220.403 26.12C219.883 27.72 219.743 29.12 219.983 30.32C220.223 31.52 220.603 32.56 221.123 33.44C221.323 33.88 221.583 34.22 221.903 34.46C222.263 34.7 222.723 34.86 223.283 34.94C223.603 34.98 223.903 35.1 224.183 35.3C224.463 35.5 224.603 35.82 224.603 36.26C224.603 37.22 224.423 37.92 224.063 38.36C223.743 38.76 223.383 39 222.983 39.08C221.663 39.24 220.403 39.1 219.203 38.66C218.003 38.22 216.923 37.08 215.963 35.24C215.803 35 215.583 34.56 215.303 33.92C215.063 33.24 214.923 32.8 214.883 32.6C214.723 32.8 214.503 33.06 214.223 33.38C213.983 33.66 213.743 33.92 213.503 34.16C210.663 37.04 208.223 38.92 206.183 39.8C204.183 40.64 202.503 40.62 201.143 39.74ZM204.443 34.76C204.723 34.8 205.163 34.66 205.763 34.34C206.363 33.98 207.163 33.4 208.163 32.6C209.523 31.44 210.643 30.48 211.523 29.72C212.403 28.96 213.263 27.98 214.103 26.78L215.423 24.62C215.023 23.7 214.663 23.1 214.343 22.82C214.023 22.54 213.703 22.4 213.383 22.4C212.863 22.4 212.243 22.74 211.523 23.42C210.803 24.06 209.983 25.02 209.063 26.3C208.183 27.54 207.183 29.1 206.063 30.98C205.543 31.86 205.143 32.72 204.863 33.56C204.583 34.36 204.443 34.76 204.443 34.76ZM247.06 39.56C246.18 39.48 245.44 39.3 244.84 39.02C244.28 38.7 243.82 38.08 243.46 37.16C243.3 36.52 243.22 35.86 243.22 35.18C243.26 34.46 243.32 33.78 243.4 33.14C243.48 32.46 243.52 31.88 243.52 31.4C243.52 31.32 243.52 31.16 243.52 30.92C243.52 30.68 243.52 30.46 243.52 30.26C243.44 29.66 243.28 29.3 243.04 29.18C242.84 29.02 242.48 29.04 241.96 29.24C241.12 29.64 240.2 30.18 239.2 30.86C238.24 31.5 237.22 32.26 236.14 33.14C235.1 33.98 234.02 34.88 232.9 35.84C232.02 36.8 231.36 37.58 230.92 38.18C230.52 38.78 230.1 39.08 229.66 39.08C229.34 39.24 229 39.2 228.64 38.96C228.28 38.72 227.9 38.44 227.5 38.12C227.22 37.8 226.88 37.4 226.48 36.92C226.12 36.4 225.9 36.06 225.82 35.9C225.82 35.26 225.86 34.68 225.94 34.16C226.06 33.64 226.22 33.1 226.42 32.54C226.66 31.98 226.94 31.34 227.26 30.62C227.42 30.34 227.56 30.06 227.68 29.78C227.84 29.46 228.02 29.12 228.22 28.76C228.38 28.2 228.6 27.56 228.88 26.84C229.2 26.12 229.5 25.44 229.78 24.8C230.22 23.76 230.56 22.86 230.8 22.1C231.04 21.34 231.24 20.52 231.4 19.64C231.36 19.56 231.38 19.44 231.46 19.28C231.54 19.12 231.66 19.02 231.82 18.98H231.88H231.94C232.22 18.78 232.74 18.76 233.5 18.92C234.3 19.04 234.9 19.26 235.3 19.58C236.14 20.3 236.54 21.24 236.5 22.4C236.46 23.56 235.86 25.08 234.7 26.96C234.42 27.6 234.12 28.2 233.8 28.76C233.52 29.28 233.38 29.64 233.38 29.84C233.38 29.84 233.54 29.72 233.86 29.48C234.18 29.24 234.56 28.96 235 28.64C235.44 28.28 235.82 28 236.14 27.8C236.34 27.6 236.78 27.24 237.46 26.72C238.14 26.16 238.88 25.58 239.68 24.98C240.48 24.38 241.12 23.92 241.6 23.6C242.04 23.28 242.6 22.96 243.28 22.64C243.96 22.28 244.38 22.1 244.54 22.1C244.94 22.1 245.42 22.24 245.98 22.52C246.58 22.8 247.12 23.14 247.6 23.54C248.12 23.9 248.42 24.24 248.5 24.56C248.5 24.72 248.48 24.94 248.44 25.22C248.4 25.46 248.38 25.68 248.38 25.88C248.34 26.52 248.32 27.3 248.32 28.22C248.36 29.1 248.38 30 248.38 30.92C248.38 31.8 248.3 32.6 248.14 33.32C248.14 33.32 248.16 33.36 248.2 33.44C248.24 33.48 248.28 33.56 248.32 33.68C248.28 33.72 248.26 33.8 248.26 33.92C248.3 34 248.32 34.04 248.32 34.04C248.4 34.32 248.48 34.6 248.56 34.88C248.68 35.16 248.82 35.48 248.98 35.84C249.14 36.16 249.32 36.58 249.52 37.1C249.48 37.62 249.18 38.14 248.62 38.66C248.1 39.14 247.58 39.44 247.06 39.56Z" fill="#2E8CCF"/>
</svg>
